<svg xmlns="http://www.w3.org/2000/svg" width="960" height="600"><style><![CDATA[.B{text-anchor:middle}.C{font-family:Courier}.D{font-size:33px}.E{font-size:56px}.F{fill:#cedb9c}.G{fill:#6b6ecf}.H{fill:#9c9ede}.I{fill:#637939}.J{fill:#8ca252}.K{fill:#b5cf6b}.L{fill:#8c6d31}.M{fill:#bd9e39}.N{fill:#e7ba52}.O{fill:#e7cb94}.P{fill:#843c39}.Q{fill:#ad494a}.R{fill:#d6616b}.S{fill:#e7969c}.T{fill:#7b4173}]]></style><g transform="matrix(1.034483 0 0 1.034483 480 300)" class="B C"><text transform="matrix(.999391 -.034899 .034899 .999391 -140 -213)" class="D F">data</text><text transform="matrix(.999848 -.017452 .017452 .999848 111 -123)" font-size="63" class="G">Test</text><text transform="matrix(.999391 -.034899 .034899 .999391 109 93)" font-size="69" class="G">Server</text><text transform="matrix(.999848 -.017452 .017452 .999848 166 -77)" font-size="69" class="H">Windows</text><text transform="matrix(.999848 .017452 -.017452 .999848 -62 96)" class="E I">SQL</text><text transform="matrix(.999848 -.017452 .017452 .999848 -232 95)" class="E J">PHP</text><text transform="matrix(1 0 0 1 190 -103)" class="D K">7</text><text transform="matrix(.999848 .017452 -.017452 .999848 -212 -54)" class="D F">58</text><text transform="matrix(.999848 -.017452 .017452 .999848 148 57)" class="D L">2012</text><text transform="matrix(.999848 .017452 -.017452 .999848 -222 -77)" class="D M">10101050</text><text transform="matrix(.999391 -.034899 .034899 .999391 137 -164)" class="D N">192168011</text><text transform="matrix(.999391 -.034899 .034899 .999391 7 -120)" class="D O">HTTP</text><text transform="matrix(.999391 -.034899 .034899 .999391 92 161)" class="D P">Apache2448</text><text transform="matrix(.999848 -.017452 .017452 .999848 56 188)" class="D Q">testsomewhere</text><text transform="matrix(.999391 -.034899 .034899 .999391 125 211)" class="D R">OpenSSL111k</text><text transform="matrix(.999391 -.034899 .034899 .999391 46 -221)" class="D S">varwwwhtml</text><text transform="matrix(.999391 .034899 -.034899 .999391 -155 48)" font-size="74" class="T">WordPress</text><text transform="matrix(1 0 0 1 -48 -57)" fill="#a55194" class="D">Banner</text><text transform="matrix(.999848 .017452 -.017452 .999848 -274 118)" fill="#ce6dbd" class="D">XPoweredBy</text><text transform="translate(342 30)" fill="#de9ed6" class="D">etcpasswd</text><text transform="matrix(.999848 -.017452 .017452 .999848 309 -115)" fill="#393b79" class="D">AdminAdmin</text><text transform="matrix(.999391 -.034899 .034899 .999391 47 -11)" font-size="100" fill="#5254a3">Information</text><text transform="matrix(.999391 .034899 -.034899 .999391 352 3)" class="D G">bobtarget</text><text transform="matrix(1 0 0 1 -334 -8)" class="D H">varlogs</text><text transform="matrix(.999848 .017452 -.017452 .999848 125 -192)" class="D I">PHP807</text><text transform="matrix(.999848 .017452 -.017452 .999848 -301 145)" class="D J">PostgreSQL</text><text transform="matrix(.999848 .017452 -.017452 .999848 315 115)" class="D K">Password</text><text transform="matrix(.999848 .017452 -.017452 .999848 263 -192)" class="D F">frontend</text><text transform="matrix(.999848 -.017452 .017452 .999848 252 -140)" class="D L">Cookies</text><text transform="matrix(1 0 0 1 -45 15)" class="D M">MariaDb</text><text transform="matrix(1 0 0 1 -228 -112)" class="D N">ASPNet</text><text transform="matrix(.999391 .034899 -.034899 .999391 224 155)" class="D O">Red</text><text transform="translate(77 55)" class="D P">Hat</text><text transform="matrix(.999848 .017452 -.017452 .999848 -249 -138)" class="D Q">backend</text><text transform="matrix(1 0 0 1 -66 -150)" class="E R">Apache</text><text transform="matrix(.999391 -.034899 .034899 .999391 -79 131)" class="E S">nginx</text><text transform="matrix(.999391 .034899 -.034899 .999391 375 -68)" class="D T">Ubuntu</text><text transform="matrix(.999848 -.017452 .017452 .999848 346 54)" fill="#a55194" class="D">WebDav</text><text transform="matrix(.999391 .034899 -.034899 .999391 285 -167)" fill="#ce6dbd" class="D">Fedora</text><text transform="matrix(.999848 -.017452 .017452 .999848 -341 68)" fill="#de9ed6" class="D">CentOS</text><text transform="matrix(.999391 -.034899 .034899 .999391 252 180)" fill="#393b79" class="D">SQLite</text><text transform="matrix(.999391 -.034899 .034899 .999391 -117 -79)" fill="#5254a3" class="D">MS</text><text transform="matrix(.999391 -.034899 .034899 .999391 125 135)" font-size="63" class="G">Joomla</text><text transform="matrix(.999391 -.034899 .034899 .999391 333 85)" class="E H">Drupal</text><text transform="matrix(.999848 .017452 -.017452 .999848 -135 -188)" class="D I">Win64</text><text transform="matrix(.999848 .017452 -.017452 .999848 154 34)" font-size="69" class="J">Linux</text><text transform="matrix(1 0 0 1 212 -217)" class="D K">error</text><text transform="matrix(.999848 .017452 -.017452 .999848 -99 163)" class="D F">MySQL</text><text transform="matrix(.999848 .017452 -.017452 .999848 -9 -187)" font-size="46" class="L">admin</text><text transform="matrix(.999848 .017452 -.017452 .999848 -205 -168)" class="D M">Unix</text><text transform="matrix(.999848 -.017452 .017452 .999848 -106 -108)" font-size="63" class="N">logs</text><text transform="matrix(.999391 .034899 -.034899 .999391 -16 -241)" class="D O">SUSE</text><text transform="matrix(.999848 -.017452 .017452 .999848 -233 172)" class="D P">IIS</text><text transform="matrix(.999848 .017452 -.017452 .999848 -35 -79)" font-size="46" class="Q">CMS</text><text transform="matrix(1 0 0 1 -97 -231)" class="D R">SSL</text><text transform="matrix(.999391 .034899 -.034899 .999391 190 -69)" font-size="10" class="S">TLS</text><text transform="matrix(1 0 0 1 -139 76)" class="D T">API</text></g></svg>