<svg class="center" width="350" height="350" xmlns="http://www.w3.org/2000/svg" version="1.1" viewBox="0 0 900 900">
<style type="text/css" >
      <![CDATA[
.floating {  
    animation-name: floating;
    animation-duration: 3s;
    animation-iteration-count: infinite;
    animation-timing-function: ease-in-out;
    margin-left: 30px;
    margin-top: 5px;
}

@keyframes floating {
    from { transform: translate(0,  0px); }
    65%  { transform: translate(0, 10px); }
    to   { transform: translate(0, -0px); }    
}
      ]]>
</style>
  
 <g>
   <path fill="antiquewhite" d="m649.18891,95.62697c63,38.2 114.8,93.7 152.8,157.8c38,64.1 62.2,136.7 56.1,205.9c-6.1,69.1 -42.5,134.8 -80.9,198.1c-38.4,63.4 -78.9,124.5 -135.7,160c-56.9,35.5 -130,45.5 -200.4,40.7c-70.5,-4.8 -138.1,-24.2 -202.7,-55.3c-64.5,-31.1 -125.8,-73.8 -159.8,-132.4c-34,-58.6 -40.7,-133.1 -36.5,-205.2c4.2,-72.1 19.2,-141.7 52.8,-201.1c33.6,-59.3 85.7,-108.3 146.1,-147.9c60.3,-39.7 128.8,-70 200,-74.8c71.3,-4.8 145.3,16.1 208.2,54.2">
     <animate attributeName="d" begin="0s" dur="3.5s" repeatCount="indefinite" from="m649.18891,95.62697c63,38.2 114.8,93.7 152.8,157.8c38,64.1 62.2,136.7 56.1,205.9c-6.1,69.1 -42.5,134.8 -80.9,198.1c-38.4,63.4 -78.9,124.5 -135.7,160c-56.9,35.5 -130,45.5 -200.4,40.7c-70.5,-4.8 -138.1,-24.2 -202.7,-55.3c-64.5,-31.1 -125.8,-73.8 -159.8,-132.4c-34,-58.6 -40.7,-133.1 -36.5,-205.2c4.2,-72.1 19.2,-141.7 52.8,-201.1c33.6,-59.3 85.7,-108.3 146.1,-147.9c60.3,-39.7 128.8,-70 200,-74.8c71.3,-4.8 145.3,16.1 208.2,54.2" to="m649.18891,95.62697c63,38.2 114.8,93.7 152.8,157.8c38,64.1 62.2,136.7 56.1,205.9c-6.1,69.1 -42.5,134.8 -80.9,198.1c-38.4,63.4 -78.9,124.5 -135.7,160c-56.9,35.5 -130,45.5 -200.4,40.7c-70.5,-4.8 -138.1,-24.2 -202.7,-55.3c-64.5,-31.1 -125.8,-73.8 -159.8,-132.4c-34,-58.6 -40.7,-133.1 -36.5,-205.2c4.2,-72.1 19.2,-141.7 52.8,-201.1c33.6,-59.3 85.7,-108.3 146.1,-147.9c60.3,-39.7 128.8,-70 200,-74.8c71.3,-4.8 145.3,16.1 208.2,54.2" values="m649.18891,95.62697c63,38.2 114.8,93.7 152.8,157.8c38,64.1 62.2,136.7 56.1,205.9c-6.1,69.1 -42.5,134.8 -80.9,198.1c-38.4,63.4 -78.9,124.5 -135.7,160c-56.9,35.5 -130,45.5 -200.4,40.7c-70.5,-4.8 -138.1,-24.2 -202.7,-55.3c-64.5,-31.1 -125.8,-73.8 -159.8,-132.4c-34,-58.6 -40.7,-133.1 -36.5,-205.2c4.2,-72.1 19.2,-141.7 52.8,-201.1c33.6,-59.3 85.7,-108.3 146.1,-147.9c60.3,-39.7 128.8,-70 200,-74.8c71.3,-4.8 145.3,16.1 208.2,54.2; m645.31911,89.09554c62.1,32.3 114.4,85 150,147.3c35.6,62.2 54.4,133.8 51.1,203.6c-3.3,69.7 -28.8,137.6 -66.9,195.4c-38.1,57.9 -88.7,105.9 -147.5,146.9c-58.7,41.1 -125.6,75.4 -191.8,74.3c-66.2,-1 -131.9,-37.4 -194.2,-76.4c-62.4,-39 -121.4,-80.6 -154.1,-137.5c-32.7,-56.8 -39,-128.8 -38.7,-200.6c0.3,-71.9 7.1,-143.5 36,-207c28.8,-63.6 79.6,-118.9 141.7,-151.2c62,-32.4 135.4,-41.7 207.9,-40.4c72.6,1.3 144.5,13.2 206.5,45.6; m648.13762,83.7762c58,35.2 100.7,95.2 132.4,158.7c31.7,63.5 52.3,130.5 59.2,201.5c6.9,71 0.2,146 -33.7,205.6c-34,59.6 -95,103.8 -160,140c-64.9,36.2 -133.8,64.3 -205.6,69.5c-71.8,5.2 -146.7,-12.5 -203.5,-53.4c-56.8,-40.8 -95.7,-104.8 -126.1,-169.6c-30.4,-64.8 -52.4,-130.5 -53,-196.5c-0.6,-65.9 20.1,-132.3 52.5,-193.8c32.3,-61.4 76.2,-118.1 133.7,-153.6c57.4,-35.5 128.4,-49.8 200.6,-51.9c72.1,-2 145.5,8.3 203.5,43.5; m649.18891,95.62697c63,38.2 114.8,93.7 152.8,157.8c38,64.1 62.2,136.7 56.1,205.9c-6.1,69.1 -42.5,134.8 -80.9,198.1c-38.4,63.4 -78.9,124.5 -135.7,160c-56.9,35.5 -130,45.5 -200.4,40.7c-70.5,-4.8 -138.1,-24.2 -202.7,-55.3c-64.5,-31.1 -125.8,-73.8 -159.8,-132.4c-34,-58.6 -40.7,-133.1 -36.5,-205.2c4.2,-72.1 19.2,-141.7 52.8,-201.1c33.6,-59.3 85.7,-108.3 146.1,-147.9c60.3,-39.7 128.8,-70 200,-74.8c71.3,-4.8 145.3,16.1 208.2,54.2" />
   </path>
 </g>

 <g>
  <path class="floating" fill="darkred" d="m520.66532,634.19736l0,-20.70368c0,-36.38917 14.7831,-71.34772 40.56366,-95.91042c32.25137,-30.73271 50.0131,-72.18409 50.0131,-116.71681c0,-88.91137 -72.33082,-161.24219 -161.24219,-161.24219c-6.06731,0 -12.22999,0.33748 -18.31197,1.01244c-77.03353,8.51771 -138.3669,73.46064 -142.67344,151.06642a161.38892,161.38892 0 0 0 48.71454,124.86769c26.44084,25.6485 41.60544,60.96654 41.60544,96.90085l0,20.71835a39.94005,39.94005 0 0 0 39.89603,39.89603l61.53145,0a39.92538,39.92538 0 0 0 39.90337,-39.8887zm-29.34611,0a10.5646,10.5646 0 0 1 -10.54993,10.54993l-61.53145,0a10.5646,10.5646 0 0 1 -10.54993,-10.54993l0,-20.71835c0,-43.82107 -18.41468,-86.81312 -50.51932,-117.96402a132.05748,132.05748 0 0 1 -39.84468,-102.17581c3.52153,-63.46096 53.64468,-116.56274 116.59942,-123.5251a137.18572,137.18572 0 0 1 15.09124,-0.83636c72.72699,0 131.89608,59.16175 131.89608,131.89608c0,36.42586 -14.52632,70.32795 -40.90847,95.47022c-31.56174,30.07242 -49.66829,72.77101 -49.66829,117.157l0,20.69634l-0.01467,0zm6.43413,54.39301l-95.50691,0a11.00479,11.00479 0 1 0 0,22.00958l95.51424,0a11.00479,11.00479 0 1 0 -0.00734,-22.00958zm11.00479,45.77993a11.00479,11.00479 0 0 0 -11.00479,-11.00479l-95.50691,0a11.00479,11.00479 0 1 0 0,22.00958l95.51424,0a11.00479,11.00479 0 0 0 10.99745,-11.00479zm-317.49554,-333.76795l63.4096,0a11.00479,11.00479 0 1 0 0,-22.00958l-63.4096,0a11.00479,11.00479 0 1 0 0,22.00958zm528.47938,-11.00479a11.00479,11.00479 0 0 0 -11.00479,-11.00479l-63.4096,0a11.00479,11.00479 0 1 0 0,22.00958l63.4096,0a11.00479,11.00479 0 0 0 11.00479,-11.00479zm-280.74687,-258.73729l0,63.4096a11.00479,11.00479 0 1 0 22.00958,0l0,-63.4096a11.00479,11.00479 0 1 0 -22.00958,0zm186.17904,68.00227l-44.83352,44.83352a11.00479,11.00479 0 1 0 15.56811,15.56077l44.83352,-44.83352a11.00479,11.00479 0 1 0 -15.56811,-15.56077zm-305.51499,321.07576a11.00479,11.00479 0 0 0 -15.56077,0l-44.83352,44.83352a11.00479,11.00479 0 1 0 15.56811,15.56077l44.83352,-44.83352a11.00479,11.00479 0 0 0 -0.00734,-15.56077zm-15.56077,-260.68147c2.1496,2.1496 4.96683,3.22074 7.78406,3.22074a11.00479,11.00479 0 0 0 7.78406,-18.78151l-44.83352,-44.83352a11.00479,11.00479 0 1 0 -15.56077,15.56077l44.82618,44.83352zm321.07576,321.07576c2.1496,2.1496 4.96683,3.22074 7.78406,3.22074a11.00479,11.00479 0 0 0 7.78406,-18.78151l-44.83352,-44.83352a11.00479,11.00479 0 1 0 -15.56077,15.56077l44.82618,44.83352zm-140.2964,188.80552a11.00479,11.00479 0 0 0 -11.00479,-11.00479l-47.75345,0a11.00479,11.00479 0 1 0 0,22.00958l47.75345,0a11.00479,11.00479 0 0 0 11.00479,-11.00479z"/>
 </g>
</svg>